<svg width="362" height="298" viewBox="0 0 362 298" fill="none" xmlns="http://www.w3.org/2000/svg">
<path d="M100.964 277.513C133.923 254.696 196.769 221.221 256.901 198.095C257.966 197.142 259.05 196.18 260.151 195.212C284.788 173.432 317.682 146.259 321.644 116.551C325.545 86.7783 300.518 54.4048 269.9 36.9196C239.281 19.4956 203.076 16.8912 166.801 16.8185C130.527 16.7459 94.1874 19.1629 76.1057 38.8624C58.108 58.5045 58.3681 95.4827 55.6375 129.222C52.9068 162.96 47.1243 193.514 55.8975 222.116C63.0683 245.656 80.1442 267.959 100.964 277.513Z" fill="white" fill-opacity="0.6"/>
<path d="M279.533 189.842C276.34 188.748 265.892 174.927 265.892 158.524C265.892 139.467 286.05 103.395 287.966 90.5454C289.186 82.3726 294.689 10.3706 336.482 10.3706C359.272 10.3706 361.173 54.9287 361.173 74.8577C361.173 121.412 293.481 161.067 293.481 185.249C288.946 187.109 284.285 188.644 279.533 189.842Z" fill="#74D5DE"/>
<path d="M284.673 188.114C284.673 150.78 312.534 82.7589 337.041 58.8219" stroke="#56CAD8" stroke-width="4" stroke-miterlimit="10" stroke-linecap="round"/>
<path d="M123.788 262.884C121.654 262.25 115.853 254.853 115.853 245.323C115.853 236.144 118.43 222.759 118.43 210.341C118.43 203.434 115.853 200.986 115.853 192.768C115.853 179.669 128.267 175.68 132.619 175.68C139.025 175.68 142.451 181.161 142.451 184.064C142.451 188.114 141.304 191.188 141.304 195.671C141.304 204.432 144.364 205.53 144.042 213.079C143.086 235.15 133.923 256.727 125.869 261.622L123.788 262.884Z" fill="#56CAD8"/>
<path d="M123.788 262.884C126.404 260.628 111.757 189.265 99.0521 176.637C85.2307 162.911 73.8684 155.644 70.1166 151.139C63.4622 143.15 59.2247 113.021 29.9336 113.021C22.1854 113.021 3.92768 119.427 0.642512 146.538C-0.432145 155.438 -2.38642 169.053 16.1352 188.783C28.6104 202.076 44.2139 197.499 59.4657 211.901C70.4455 222.269 68.9081 237.907 79.1613 251.121C87.3647 261.676 108.663 275.914 123.788 262.884Z" fill="#74D5DE"/>
<path d="M120.193 264.586C120.193 246.677 63.6955 165.844 41.0895 154.283" stroke="#56CAD8" stroke-width="4" stroke-miterlimit="10" stroke-linecap="round"/>
<path d="M123.788 262.884C123.226 258.639 120.855 222.575 127.574 209.435" stroke="#74D5DE" stroke-width="4" stroke-linecap="round" stroke-linejoin="round"/>
<path d="M79.1652 296C96.0729 271.857 247.11 189.486 337.844 174.269" stroke="#6D6D6D" stroke-width="3" stroke-miterlimit="10" stroke-linecap="round"/>
<path d="M172.481 267.887V277.83H145.48V273.623L162.208 265.94L172.481 267.887Z" fill="#333333"/>
<path d="M231.051 258.353C232.417 261.412 235.641 269.34 235.641 269.34L222.167 277.811H209.96L208.53 273.13L223.865 261.393L231.051 258.353Z" fill="#333333"/>
<path d="M184.382 41.2756C190.67 41.2756 195.767 34.8478 195.767 26.9188C195.767 18.9897 190.67 12.5619 184.382 12.5619C178.094 12.5619 172.997 18.9897 172.997 26.9188C172.997 34.8478 178.094 41.2756 184.382 41.2756Z" fill="#DE8E68"/>
<path d="M176.091 1.27613C174.599 -0.773754 170.389 -0.311001 166.687 2.35461C165.285 3.34309 164.095 4.60017 163.184 6.05281C163.063 5.99913 162.933 5.96926 162.801 5.96485C161.004 5.96485 131.124 21.947 131.407 29.3205C131.69 36.6939 141.713 48.519 145.213 50.7869C145.213 50.7869 161.004 43.4134 160.155 41.0461C159.306 38.6788 150.211 31.1027 148.616 29.6035C150.49 28.6244 165.49 13.7628 167.184 12.0801C168.962 11.6997 170.638 10.9419 172.098 9.85809C175.793 7.18865 177.586 3.34895 176.091 1.27613Z" fill="#DE8E68"/>
<path d="M167.509 63.7248C170.951 60.9559 165.253 37.738 159.145 37.1681C153.037 36.5983 142.386 48.1059 142.815 51.372C143.243 54.638 158.812 70.6852 167.509 63.7248Z" fill="#FCC486"/>
<path d="M153.844 119.313C153.844 123.137 155.756 255.461 159.198 266.935C162.258 268.464 170.289 268.847 172.966 267.699C175.643 266.552 192.727 121.408 192.727 115.037C192.727 108.665 153.844 119.313 153.844 119.313Z" fill="#56CAD8"/>
<path d="M222.431 262.8C218.779 257.064 171.222 145.667 167.494 118.2C171.398 115.175 200.456 110.352 202.808 115.844C205.16 121.336 233.403 257.113 232.436 258.877C231.468 260.64 225.177 263.389 222.431 262.8Z" fill="#74D5DE"/>
<path d="M184.543 45.5015C209.21 45.5015 207.681 113.767 202.326 117.974C196.972 122.181 155.095 122.372 152.418 119.313C149.741 116.253 143.415 45.5015 184.543 45.5015Z" fill="#FED385"/>
<path d="M202.491 22.0426C202.491 19.1323 199.71 17.0327 199.71 15.4188C199.71 13.8049 200.663 10.9136 198.533 8.84463C195.943 6.332 191.817 7.37988 188.123 7.37988C184.65 7.37988 182.734 3.34514 177.995 3.34514C174.837 3.34514 175.238 7.4449 174.056 8.46219C173.181 9.22707 166.354 10.6956 166.354 13.8164C166.354 17.3042 166.446 21.9853 173.689 21.9853C174.171 20.3102 175.984 16.6311 178.049 14.9943C179.112 15.4532 184.933 17.8549 186.375 18.2794C187.817 18.7039 189.924 24.8765 192.157 25.6223C194.391 26.368 194.532 30.4793 196.165 30.3034C197.798 30.1274 202.491 29.439 202.491 22.0426Z" fill="#FD8369"/>
<path d="M194.184 31.0606C195.846 31.0606 197.194 29.7131 197.194 28.0508C197.194 26.3885 195.846 25.041 194.184 25.041C192.522 25.041 191.174 26.3885 191.174 28.0508C191.174 29.7131 192.522 31.0606 194.184 31.0606Z" fill="#DE8E68"/>
<path d="M190.073 50.8557C189.591 52.5193 179.475 50.5 179.671 48.6184L181.399 31.9058L193.588 34.5293C193.588 34.5293 190.562 49.1997 190.073 50.8557Z" fill="#DE8E68"/>
<path d="M252.112 118.333C250.973 117.181 249.502 116.412 247.906 116.134C242.804 107.9 225.468 82.5218 217.823 73.3011C212.312 77.2594 205.585 84.1815 205.585 84.1815C208.396 87.3329 229.449 112.241 240.651 122.009C240.644 123.032 240.844 124.046 241.238 124.99C241.633 125.934 242.213 126.79 242.945 127.504C245.779 130.342 250.131 130.587 252.663 128.059C255.195 125.531 254.946 121.171 252.112 118.333Z" fill="#DE8E68"/>
<path d="M194.23 56.6879C204.124 49.3336 220.435 67.1171 220.167 71.7943C219.899 76.4716 207.363 86.8434 203.076 86.8548C197.84 86.8625 185.809 62.9485 194.23 56.6879Z" fill="#FED892"/>
</svg>
