<svg width="284" height="292" viewBox="0 0 284 292" fill="none" xmlns="http://www.w3.org/2000/svg">
<path d="M213.545 33.9499C228.268 47.1714 237.904 65.6188 253.373 92.1338C268.915 118.649 290.345 153.228 282.218 173.844C274.091 194.459 236.262 201.104 200.543 214.624C164.824 228.143 131.196 248.457 100.26 244.497C69.3248 240.537 41.0822 212.308 33.979 181.087C26.8038 149.791 40.7026 115.509 50.7145 84.2885C60.6544 53.0709 66.7074 24.9012 84.1169 12.1473C101.526 -0.606631 130.299 2.13382 154.661 7.43486C179.02 12.8013 198.822 20.7316 213.545 33.9499Z" fill="#FFE7AF"/>
<path d="M181.687 257.115H187.611V252.1H181.687V257.115Z" fill="#DE8E68"/>
<path d="M188.168 256.331V261.346H174.075V259.521L181.405 256.331H188.168Z" fill="black"/>
<path d="M89.6143 195.599H95.5378V190.585H89.6143V195.599Z" fill="#DE8E68"/>
<path d="M96.095 194.816V199.83H82.0055V198.009L89.3358 194.816H96.095Z" fill="black"/>
<path d="M181.482 127.749C181.781 130.598 188.074 253.423 188.074 253.423H181.482L149.427 137.775L181.482 127.749Z" fill="#56CAD8"/>
<path d="M184.867 114.217C184.867 130.897 178.734 145.906 166.32 145.906C149.277 145.906 126.715 135.041 120.506 128.909C118.957 133.492 96.9761 191.215 96.9761 191.215H87.8732C87.8732 191.215 93.7061 124.006 104.641 106.768C108.238 101.977 137.594 103.175 152.425 106.768C167.257 110.362 184.867 114.217 184.867 114.217Z" fill="#74D5DE"/>
<path d="M140.846 17.0287C140.95 16.5134 141.239 16.0541 141.659 15.7382C142.079 15.4223 142.6 15.2718 143.124 15.3154C144.458 15.4094 146.638 18.9335 146.638 21.7855C146.638 24.6376 145.833 25.7101 146.077 27.7821C146.321 29.8541 151.596 57.9496 151.596 59.6629C152.927 59.7569 157.687 59.0918 157.687 59.0918L154.354 72.5127H144.653L138.384 18.4564L140.846 17.0287Z" fill="#D37C59"/>
<path d="M150.151 21.8134L148.107 30.0735C148.107 30.0735 127.941 27.7299 125.74 27.1866C123.539 26.6434 126.854 12.9857 129.114 13.5428C131.375 14.1 150.151 21.8134 150.151 21.8134Z" fill="black"/>
<path d="M168.628 46.2489C194.426 46.2489 188.063 112.897 185.051 115.391C182.039 117.884 149.967 109.471 147.303 105.759C144.639 102.046 149.709 46.2489 168.628 46.2489Z" fill="#FED385"/>
<path d="M159.421 63.1695C158.004 63.6501 149.692 66.8921 149.692 66.8921C149.552 65.2206 143.162 32.0688 142.769 30.0386C143.575 28.0122 143.974 25.8466 143.942 23.6659C143.942 18.223 141.731 13.804 139.004 13.804C136.278 13.804 134.07 18.223 134.07 23.6659C134.031 25.9441 134.47 28.2051 135.358 30.3032C135.052 34.4472 132.301 73.7941 137.914 79.4042C143.834 85.3241 158.227 79.9857 166.974 76.0089C168.848 75.3612 166.295 61.3099 159.421 63.1695Z" fill="#DE8E68"/>
<path d="M153.249 25.2255L148.032 23.8403L147.064 27.4854L152.281 28.8706L153.249 25.2255Z" fill="black"/>
<path d="M185.069 58.4928C189 66.1261 173.431 79.8778 169.123 78.854C164.815 77.8302 157.868 62.4592 159.167 59.7012C160.466 56.9432 181.245 51.065 185.069 58.4928Z" fill="#FED892"/>
<path d="M170.209 52.7087C170.209 54.0006 162.329 54.328 162.329 52.7087V37.8322H170.209V52.7087Z" fill="#D37C59"/>
<path d="M163.422 46.4682C169.104 46.4682 173.709 39.0204 173.709 29.8331C173.709 20.6458 169.104 13.198 163.422 13.198C157.741 13.198 153.136 20.6458 153.136 29.8331C153.136 39.0204 157.741 46.4682 163.422 46.4682Z" fill="#DC8E6C"/>
<path d="M155.716 18.8115C155.638 20.0063 155.879 21.2004 156.414 22.2713C156.95 23.3422 157.76 24.2514 158.763 24.9056C161.831 26.995 164.018 26.0722 166.268 28.0397C167.455 29.2272 170.363 31.522 170.391 35.067C170.391 37.6892 171.251 39.0125 172.006 39.0125C172.762 39.0125 174.754 38.4902 176.035 38.4902C188.621 38.4902 203.4 51.4828 231.753 51.4828C246.563 51.4828 269.804 47.7462 269.804 25.9956C269.804 14.2497 265.577 0.0556641 243.231 0.0556641C229.04 0.0556641 219.098 7.02033 207.439 7.02033C192.465 7.02033 186.691 1.59834 176.345 1.59834C168.977 1.59834 152.394 5.86768 152.394 17.0529C152.394 21.3014 153.724 22.5341 154.135 22.7535C154.267 22.2869 155.079 19.8771 155.716 18.8115Z" fill="black"/>
<path d="M169.332 36.3974C170.782 36.3974 171.958 35.2218 171.958 33.7717C171.958 32.3216 170.782 31.146 169.332 31.146C167.882 31.146 166.706 32.3216 166.706 33.7717C166.706 35.2218 167.882 36.3974 169.332 36.3974Z" fill="#DC8E6C"/>
<path d="M97.8536 199.771H0V268.198L103.774 265.935L97.8536 199.771Z" fill="#75CEE8"/>
<path d="M156.357 223.102H58.5032V291.53L162.277 289.267L156.357 223.102Z" fill="#E492E5"/>
</svg>
