<svg width="283" height="46" viewBox="0 0 283 46" fill="none" xmlns="http://www.w3.org/2000/svg">
<path d="M35.02 12.06C30.94 9.74 26.58 8.36 21.94 7.92V45H16V7.92C11.32 8.36 6.94 9.74 2.86 12.06L0.76 7.32C6.12 4.12 12.16 2.52 18.88 2.52C25.68 2.52 31.76 4.12 37.12 7.32L35.02 12.06ZM52.6581 45.36C49.4981 45.36 46.6581 44.66 44.1381 43.26C41.6181 41.86 39.6381 39.94 38.1981 37.5C36.7981 35.02 36.0981 32.22 36.0981 29.1C36.0981 25.98 36.7981 23.2 38.1981 20.76C39.6381 18.28 41.6181 16.36 44.1381 15C46.6581 13.6 49.4981 12.9 52.6581 12.9C55.8181 12.9 58.6381 13.6 61.1181 15C63.6381 16.36 65.5981 18.28 66.9981 20.76C68.4381 23.2 69.1581 25.98 69.1581 29.1C69.1581 32.22 68.4381 35.02 66.9981 37.5C65.5981 39.94 63.6381 41.86 61.1181 43.26C58.6381 44.66 55.8181 45.36 52.6581 45.36ZM52.6581 40.32C54.6981 40.32 56.5181 39.86 58.1181 38.94C59.7581 37.98 61.0381 36.66 61.9581 34.98C62.8781 33.26 63.3381 31.3 63.3381 29.1C63.3381 26.9 62.8781 24.96 61.9581 23.28C61.0381 21.56 59.7581 20.24 58.1181 19.32C56.5181 18.4 54.6981 17.94 52.6581 17.94C50.6181 17.94 48.7781 18.4 47.1381 19.32C45.5381 20.24 44.2581 21.56 43.2981 23.28C42.3781 24.96 41.9181 26.9 41.9181 29.1C41.9181 31.3 42.3781 33.26 43.2981 34.98C44.2581 36.66 45.5381 37.98 47.1381 38.94C48.7781 39.86 50.6181 40.32 52.6581 40.32ZM107.064 23.76H112.824V45H107.544V42.18C104.464 44.38 100.564 45.48 95.8441 45.48C92.0441 45.48 88.5041 44.64 85.2241 42.96C81.9841 41.28 79.3841 38.84 77.4241 35.64C75.5041 32.4 74.5441 28.58 74.5441 24.18C74.5441 20.02 75.5041 16.3 77.4241 13.02C79.3841 9.74 82.0641 7.18 85.4641 5.34C88.9041 3.46 92.7641 2.52 97.0441 2.52C100.404 2.52 103.444 3.08 106.164 4.2C108.924 5.28 111.264 6.88 113.184 9L109.464 12.72C106.104 9.48 102.044 7.86 97.2841 7.86C94.0841 7.86 91.2041 8.56 88.6441 9.96C86.1241 11.36 84.1441 13.3 82.7041 15.78C81.2641 18.26 80.5441 21.06 80.5441 24.18C80.5441 27.5 81.2641 30.38 82.7041 32.82C84.1841 35.26 86.1241 37.12 88.5241 38.4C90.9241 39.64 93.5241 40.26 96.3241 40.26C98.2841 40.26 100.184 39.94 102.024 39.3C103.904 38.62 105.584 37.64 107.064 36.36V23.76ZM153.472 13.2V45H147.952V39.96C146.672 41.72 145.052 43.06 143.092 43.98C141.132 44.9 138.972 45.36 136.612 45.36C133.532 45.36 130.772 44.68 128.332 43.32C125.892 41.96 123.972 40.06 122.572 37.62C121.212 35.14 120.532 32.3 120.532 29.1C120.532 25.9 121.212 23.08 122.572 20.64C123.972 18.2 125.892 16.3 128.332 14.94C130.772 13.58 133.532 12.9 136.612 12.9C138.892 12.9 140.992 13.34 142.912 14.22C144.832 15.06 146.432 16.32 147.712 18V13.2H153.472ZM137.092 40.32C139.092 40.32 140.912 39.86 142.552 38.94C144.192 37.98 145.472 36.66 146.392 34.98C147.312 33.26 147.772 31.3 147.772 29.1C147.772 26.9 147.312 24.96 146.392 23.28C145.472 21.56 144.192 20.24 142.552 19.32C140.912 18.4 139.092 17.94 137.092 17.94C135.052 17.94 133.212 18.4 131.572 19.32C129.972 20.24 128.692 21.56 127.732 23.28C126.812 24.96 126.352 26.9 126.352 29.1C126.352 31.3 126.812 33.26 127.732 34.98C128.692 36.66 129.972 37.98 131.572 38.94C133.212 39.86 135.052 40.32 137.092 40.32ZM181.11 43.14C180.27 43.86 179.23 44.42 177.99 44.82C176.75 45.18 175.47 45.36 174.15 45.36C170.95 45.36 168.47 44.5 166.71 42.78C164.95 41.06 164.07 38.6 164.07 35.4V6.24H169.83V13.2H178.95V17.94H169.83V35.16C169.83 36.88 170.25 38.2 171.09 39.12C171.97 40.04 173.21 40.5 174.81 40.5C176.57 40.5 178.07 40 179.31 39L181.11 43.14ZM205.022 12.9C209.062 12.9 212.262 14.08 214.622 16.44C217.022 18.76 218.222 22.18 218.222 26.7V45H212.462V27.36C212.462 24.28 211.722 21.96 210.242 20.4C208.762 18.84 206.642 18.06 203.882 18.06C200.762 18.06 198.302 18.98 196.502 20.82C194.702 22.62 193.802 25.22 193.802 28.62V45H188.042V0.479997H193.802V17.7C195.002 16.18 196.562 15 198.482 14.16C200.442 13.32 202.622 12.9 205.022 12.9ZM243.398 40.32C247.198 40.32 250.258 39.04 252.578 36.48L255.698 40.2C254.298 41.88 252.518 43.16 250.358 44.04C248.238 44.92 245.858 45.36 243.218 45.36C239.858 45.36 236.878 44.68 234.278 43.32C231.678 41.92 229.658 39.98 228.218 37.5C226.818 35.02 226.118 32.22 226.118 29.1C226.118 26.02 226.798 23.24 228.158 20.76C229.558 18.28 231.458 16.36 233.858 15C236.298 13.6 239.038 12.9 242.078 12.9C244.958 12.9 247.578 13.56 249.938 14.88C252.298 16.16 254.178 17.98 255.578 20.34C256.978 22.7 257.698 25.42 257.738 28.5L232.478 33.42C233.278 35.62 234.618 37.32 236.498 38.52C238.418 39.72 240.718 40.32 243.398 40.32ZM242.078 17.76C240.078 17.76 238.278 18.22 236.678 19.14C235.118 20.06 233.898 21.36 233.018 23.04C232.138 24.68 231.698 26.6 231.698 28.8V29.4L252.038 25.56C251.518 23.24 250.358 21.36 248.558 19.92C246.758 18.48 244.598 17.76 242.078 17.76ZM271.316 18.54C272.316 16.7 273.796 15.3 275.756 14.34C277.716 13.38 280.096 12.9 282.896 12.9V18.48C282.576 18.44 282.136 18.42 281.576 18.42C278.456 18.42 275.996 19.36 274.196 21.24C272.436 23.08 271.556 25.72 271.556 29.16V45H265.796V13.2H271.316V18.54Z" fill="black"/>
</svg>
