<svg width="296" height="381" viewBox="0 0 296 381" fill="none" xmlns="http://www.w3.org/2000/svg">
<path d="M275.192 255.144C253.726 302.11 132.005 341.431 85.0389 319.965C38.0732 298.5 17.4013 243.025 38.8669 196.06C60.3325 149.094 115.807 128.422 162.773 149.888C209.738 171.353 296.658 208.178 275.192 255.144Z" fill="white" fill-opacity="0.15"/>
<path d="M80.3681 46.3532C55.2775 61.6448 37.5072 89.1136 40.2861 115.006C43.1271 140.838 66.5248 165.146 74.5617 195.786C82.5985 226.426 75.3478 263.5 88.7706 282.359C102.128 301.282 136.305 302.101 164.152 293.782C192.08 285.523 213.723 268.127 237.782 252.545C261.841 237.019 288.274 223.255 294.49 203.396C300.706 183.598 286.691 157.692 271.454 138.379C256.28 118.988 239.778 106.219 222.732 88.3554C205.686 70.4916 188.032 47.5861 163.004 37.6906C137.917 27.7879 105.451 31.0085 80.3681 46.3532Z" fill="#D6F4F7" fill-opacity="0.85"/>
<path d="M149.511 216.842L154.813 125.256" stroke="#FED385" stroke-width="5" stroke-miterlimit="10" stroke-linecap="round"/>
<path d="M149.511 216.842L213.499 134.645" stroke="#FED385" stroke-width="5" stroke-miterlimit="10" stroke-linecap="round"/>
<path d="M149.511 216.842L217.521 73.3508" stroke="#FED385" stroke-width="5" stroke-miterlimit="10" stroke-linecap="round"/>
<path d="M259.189 59.3179C266.161 40.7455 259.704 21.4214 244.767 16.1563C229.83 10.8912 212.069 21.6789 205.096 40.2513C198.124 58.8237 204.581 78.1478 219.518 83.413C234.455 88.6781 252.216 77.8903 259.189 59.3179Z" fill="#FD8369"/>
<path d="M187.728 99.5565C189.147 79.8413 177.444 62.9902 161.588 61.9185C145.731 60.8468 131.727 75.9604 130.308 95.6756C128.889 115.391 140.592 132.242 156.448 133.314C172.304 134.385 186.309 119.272 187.728 99.5565Z" fill="#D37C59"/>
<path d="M263.209 115.448C273.106 95.7422 267.219 73.208 250.06 65.1165C232.901 57.025 210.967 66.4403 201.07 86.1462C191.173 105.852 197.06 128.386 214.22 136.478C231.379 144.569 253.312 135.154 263.209 115.448Z" fill="#74D5DE"/>
<path d="M207.192 42.2565C210.119 23.6158 199.576 6.60075 183.644 4.25231C167.713 1.90387 152.425 15.1114 149.499 33.7521C146.572 52.3928 157.115 69.4078 173.046 71.7562C188.978 74.1047 204.265 60.8972 207.192 42.2565Z" fill="#74D5DE"/>
<path d="M216.089 91.4032C221.568 73.9072 215.147 56.53 201.748 52.5903C188.349 48.6506 173.045 59.6401 167.566 77.1362C162.087 94.6322 168.507 112.009 181.907 115.949C195.306 119.889 210.61 108.899 216.089 91.4032Z" fill="#FED385"/>
<path d="M156.393 132.242L159.684 139.732C159.78 139.952 159.814 140.193 159.784 140.43C159.754 140.667 159.66 140.892 159.512 141.082C159.364 141.273 159.167 141.423 158.94 141.517C158.714 141.611 158.466 141.645 158.221 141.617L149.888 140.622C149.643 140.593 149.41 140.502 149.213 140.358C149.015 140.214 148.861 140.023 148.764 139.802C148.668 139.582 148.633 139.341 148.664 139.104C148.694 138.866 148.788 138.641 148.937 138.45L153.994 131.956C154.143 131.768 154.34 131.622 154.565 131.531C154.79 131.44 155.036 131.407 155.278 131.436C155.52 131.465 155.75 131.555 155.946 131.696C156.141 131.838 156.295 132.026 156.393 132.242Z" fill="#D37C59"/>
<path d="M149.512 216.842L137.445 85.397" stroke="#FED385" stroke-width="5" stroke-miterlimit="10" stroke-linecap="round"/>
<path d="M149.511 216.842L181.688 112.678" stroke="#FED385" stroke-width="5" stroke-miterlimit="10" stroke-linecap="round"/>
<path d="M182.88 112.774L184.796 120.699C184.852 120.932 184.844 121.175 184.772 121.403C184.7 121.632 184.567 121.838 184.387 122.001C184.207 122.164 183.986 122.278 183.746 122.332C183.506 122.386 183.255 122.378 183.019 122.308L174.975 119.945C174.739 119.876 174.526 119.747 174.357 119.573C174.189 119.398 174.071 119.184 174.015 118.951C173.959 118.719 173.967 118.476 174.039 118.247C174.11 118.018 174.243 117.812 174.423 117.649L180.551 112.09C180.731 111.926 180.952 111.811 181.193 111.757C181.433 111.702 181.684 111.71 181.92 111.779C182.156 111.849 182.369 111.977 182.538 112.152C182.706 112.326 182.825 112.541 182.88 112.774Z" fill="#FED385"/>
<path d="M215.66 133.266L215.075 141.38C215.059 141.62 214.978 141.851 214.84 142.05C214.702 142.249 214.512 142.41 214.289 142.515C214.066 142.62 213.818 142.666 213.571 142.648C213.324 142.631 213.086 142.55 212.882 142.414L205.934 137.865C205.73 137.732 205.565 137.548 205.457 137.333C205.349 137.118 205.301 136.879 205.318 136.641C205.336 136.402 205.418 136.172 205.556 135.974C205.694 135.776 205.884 135.617 206.106 135.513L213.649 131.948C213.871 131.845 214.116 131.8 214.361 131.817C214.607 131.834 214.843 131.913 215.046 132.047C215.25 132.18 215.414 132.363 215.522 132.577C215.629 132.791 215.677 133.029 215.66 133.266Z" fill="#74D5DE"/>
<path d="M137.803 89.3479C156.825 87.865 170.775 68.954 168.961 47.1091C167.147 25.2641 150.256 8.75752 131.234 10.2405C112.212 11.7235 98.2624 30.6345 100.076 52.4794C101.89 74.3243 118.781 90.8309 137.803 89.3479Z" fill="#FD8369"/>
<path d="M138.454 86.258L143.208 92.9542C143.346 93.151 143.428 93.3793 143.447 93.6165C143.466 93.8537 143.42 94.0915 143.315 94.3064C143.21 94.5213 143.048 94.7057 142.847 94.8414C142.645 94.9772 142.41 95.0594 142.166 95.08L133.811 95.7497C133.565 95.7681 133.319 95.7237 133.096 95.621C132.874 95.5183 132.683 95.3608 132.543 95.1642C132.403 94.9677 132.319 94.739 132.299 94.501C132.279 94.263 132.323 94.0241 132.429 93.8081L136.03 86.4599C136.135 86.2434 136.296 86.0573 136.498 85.9204C136.7 85.7835 136.936 85.7006 137.182 85.6802C137.428 85.6597 137.675 85.7023 137.898 85.8038C138.122 85.9052 138.313 86.0619 138.454 86.258Z" fill="#FD8369"/>
<path d="M115.777 282.104L195.848 297.523L210.103 228.022L130.031 212.603L115.777 282.104Z" fill="#DE8E68"/>
<path d="M133.262 236.701L213.331 252.12L210.117 228.02L130.045 212.601L133.262 236.701Z" fill="#D37C59"/>
<path d="M69.94 273.271L115.784 282.099L130.038 212.598L84.1943 203.77L69.94 273.271Z" fill="#D37C59"/>
<path d="M117.788 233.717L72.0314 224.906L84.2915 203.786L130.045 212.601L117.788 233.717Z" fill="#DE8E68"/>
<path d="M146.521 288.023L165.105 291.602L169.31 271.099L150.726 267.521L146.521 288.023Z" fill="#D37C59"/>
<path d="M126.453 255.207L154.44 260.596L157.51 245.629L129.522 240.24L126.453 255.207Z" fill="#FED385"/>
<path d="M146.028 256.702L152.354 257.92L154.584 247.047L148.258 245.829L146.028 256.702Z" fill="#FD8369"/>
<path d="M130.672 244.656L146.481 247.701L146.905 245.629L131.097 242.585L130.672 244.656Z" fill="#FD8369"/>
<path d="M129.941 248.2L145.75 251.244L146.175 249.173L130.366 246.129L129.941 248.2Z" fill="#FD8369"/>
</svg>
