<svg width="25" height="20" viewBox="0 0 25 20" fill="none" xmlns="http://www.w3.org/2000/svg">
<path d="M24.5203 7.00898L20.2605 4.5708L17.8223 8.8306C17.5421 9.30703 17.7102 9.89555 18.1866 10.1758C18.3268 10.2599 18.4949 10.3159 18.6631 10.3159C18.9994 10.3159 19.3357 10.1478 19.5038 9.81148L20.3446 8.32615C20.9051 11.1286 19.9242 14.0993 17.6542 15.977C14.9358 18.247 10.9842 18.4712 8.06963 16.4534C7.62123 16.1451 7.00468 16.2572 6.6964 16.7056C6.38813 17.154 6.50023 17.7706 6.94863 18.0788C8.63013 19.2279 10.5639 19.7884 12.5256 19.7884C14.7956 19.7884 17.0937 19.0037 18.9153 17.4623C21.7178 15.1082 22.9509 11.4369 22.2783 7.96182L23.5114 8.66245C23.9878 8.9427 24.5763 8.77455 24.8566 8.29813C25.1368 7.87775 24.9967 7.28923 24.5203 7.00898Z" fill="white"/>
<path d="M6.69635 9.58725C6.21993 9.36305 5.6314 9.55922 5.37918 10.0356L4.7346 11.2968C4.25818 8.55032 5.23905 5.66375 7.45303 3.8141C10.1715 1.54407 14.123 1.31987 17.0376 3.33767C17.486 3.64595 18.1025 3.53385 18.4108 3.08545C18.7191 2.63705 18.607 2.0205 18.1586 1.71223C14.5153 -0.781999 9.58293 -0.529774 6.1919 2.32878C3.33335 4.7109 2.10025 8.5223 2.88495 12.0815L1.42765 11.3528C0.95123 11.1006 0.362705 11.2968 0.11048 11.7732C-0.141745 12.2496 0.0544299 12.8381 0.530855 13.0904L4.90275 15.3043L7.11673 10.9324C7.36895 10.428 7.17278 9.83947 6.69635 9.58725Z" fill="white"/>
</svg>
