<svg width="23" height="20" viewBox="0 0 23 20" fill="none" xmlns="http://www.w3.org/2000/svg">
<path d="M15.0246 9.90557H15.3285C17.3764 9.90557 19.0424 8.23818 19.0424 6.18875V3.71681C19.0424 1.66712 17.3762 0 15.3285 0H15.0246C12.9764 0 11.3102 1.66739 11.3102 3.71681V6.18875C11.3102 8.23845 12.9764 9.90557 15.0246 9.90557ZM12.6582 3.71681C12.6582 2.41123 13.72 1.34902 15.0246 1.34902H15.3285C16.6331 1.34902 17.6943 2.4115 17.6943 3.71681V6.18875C17.6943 7.49433 16.6329 8.55655 15.3285 8.55655H15.0246C13.7197 8.55655 12.6582 7.49406 12.6582 6.18875V3.71681ZM22.3634 11.5832C22.044 11.1979 21.5436 10.9772 20.9898 10.9772H17.0181C16.6458 10.9772 16.3441 11.2791 16.3441 11.6517C16.3441 12.0243 16.6458 12.3262 17.0181 12.3262H20.9898C21.141 12.3262 21.2637 12.3694 21.326 12.4444C21.3767 12.5057 21.391 12.5952 21.3694 12.711C21.3157 12.997 20.8145 13.4923 20.6005 13.7039L15.9987 18.3086C15.789 18.5185 15.5064 18.6396 15.2039 18.6488C15.1966 18.6491 15.1891 18.6494 15.1818 18.6499H15.1761L15.1721 18.6502C15.1643 18.6496 15.1562 18.6491 15.1484 18.6488C14.8461 18.6396 14.5639 18.5188 14.3541 18.3089L9.83973 13.7913L9.75211 13.7041C9.53803 13.4926 9.0371 12.9972 8.98318 12.7115C8.96161 12.5955 8.97643 12.5057 9.02712 12.4447C9.08913 12.3697 9.2118 12.3265 9.36279 12.3265H13.2126C13.5849 12.3265 13.8866 12.0246 13.8866 11.652C13.8866 11.2794 13.5849 10.9775 13.2126 10.9775H9.36279C8.80954 10.9775 8.30915 11.1982 7.98966 11.5829C7.67987 11.9566 7.56205 12.4455 7.65831 12.96C7.78934 13.6604 8.42508 14.2885 8.80442 14.6636L13.4013 19.2629C13.8386 19.7 14.4175 19.9582 15.0373 19.9941C15.0634 19.9976 15.0899 19.9997 15.1171 20H15.1306C15.1481 20 15.1637 19.9995 15.1689 19.9986C15.1832 19.9992 15.2214 19.9997 15.2363 20C15.263 19.9995 15.2891 19.9973 15.315 19.9941C15.9356 19.9584 16.5145 19.7002 16.9521 19.2626L21.4667 14.7445L21.5484 14.6636C21.9277 14.2883 22.5635 13.6602 22.6945 12.96C22.7908 12.4458 22.6732 11.9572 22.3634 11.5832ZM8.89717 6.50982C8.89717 6.13722 8.59547 5.83531 8.22314 5.83531H5.12261V2.73257C5.12261 2.35997 4.82092 2.05806 4.44858 2.05806C4.07625 2.05806 3.77456 2.35997 3.77456 2.73257V5.83531H0.674028C0.301695 5.83531 0 6.13722 0 6.50982C0 6.88242 0.301695 7.18433 0.674028 7.18433H3.77456V10.2871C3.77456 10.6597 4.07625 10.9616 4.44858 10.9616C4.82092 10.9616 5.12261 10.6597 5.12261 10.2871V7.18433H8.22314C8.5952 7.18433 8.89717 6.88242 8.89717 6.50982Z" fill="#D3486E"/>
</svg>
