<svg width="25" height="22" viewBox="0 0 25 22" fill="none" xmlns="http://www.w3.org/2000/svg">
<path d="M16.5271 10.8961H16.8613C19.1141 10.8961 20.9466 9.062 20.9466 6.80763V4.0885C20.9466 1.83383 19.1138 0 16.8613 0H16.5271C14.274 0 12.4412 1.83412 12.4412 4.0885V6.80763C12.4412 9.0623 14.274 10.8961 16.5271 10.8961ZM13.9241 4.0885C13.9241 2.65236 15.092 1.48392 16.5271 1.48392H16.8613C18.2964 1.48392 19.4637 2.65265 19.4637 4.0885V6.80763C19.4637 8.24377 18.2961 9.41221 16.8613 9.41221H16.5271C15.0917 9.41221 13.9241 8.24347 13.9241 6.80763V4.0885ZM24.5998 12.7415C24.2483 12.3177 23.6979 12.075 23.0888 12.075H18.7199C18.3104 12.075 17.9785 12.4071 17.9785 12.8169C17.9785 13.2268 18.3104 13.5589 18.7199 13.5589H23.0888C23.2551 13.5589 23.3901 13.6064 23.4586 13.6889C23.5143 13.7562 23.53 13.8548 23.5063 13.9821C23.4473 14.2967 22.896 14.8416 22.6605 15.0742L17.5986 20.1395C17.3679 20.3704 17.0571 20.5036 16.7243 20.5137C16.7163 20.514 16.708 20.5143 16.7 20.5149H16.6938L16.6893 20.5152C16.6807 20.5146 16.6718 20.514 16.6632 20.5137C16.3308 20.5036 16.0202 20.3707 15.7895 20.1398L10.8237 15.1704L10.7273 15.0745C10.4918 14.8419 9.94081 14.297 9.88149 13.9827C9.85777 13.8551 9.87408 13.7562 9.92983 13.6892C9.99805 13.6067 10.133 13.5592 10.2991 13.5592H14.5338C14.9434 13.5592 15.2753 13.2271 15.2753 12.8172C15.2753 12.4073 14.9434 12.0752 14.5338 12.0752H10.2991C9.6905 12.0752 9.14006 12.318 8.78862 12.7412C8.44786 13.1523 8.31826 13.69 8.42414 14.256C8.56827 15.0265 9.26759 15.7174 9.68486 16.1299L14.7414 21.1892C15.2225 21.67 15.8592 21.954 16.541 21.9935C16.5698 21.9973 16.5989 21.9997 16.6288 22H16.6436C16.6629 22 16.6801 21.9994 16.6858 21.9985C16.7015 21.9991 16.7436 21.9997 16.7599 22C16.7893 21.9994 16.818 21.997 16.8465 21.9935C17.5292 21.9543 18.1659 21.6703 18.6473 21.1889L23.6134 16.2189L23.7032 16.1299C24.1205 15.7171 24.8198 15.0262 24.964 14.256C25.0699 13.6903 24.9405 13.1529 24.5998 12.7415ZM9.78689 7.1608C9.78689 6.75094 9.45502 6.41884 9.04546 6.41884H5.63487V3.00583C5.63487 2.59597 5.30301 2.26387 4.89344 2.26387C4.48388 2.26387 4.15201 2.59597 4.15201 3.00583V6.41884H0.741431C0.331864 6.41884 0 6.75094 0 7.1608C0 7.57066 0.331864 7.90276 0.741431 7.90276H4.15201V11.3158C4.15201 11.7256 4.48388 12.0577 4.89344 12.0577C5.30301 12.0577 5.63487 11.7256 5.63487 11.3158V7.90276H9.04546C9.45473 7.90276 9.78689 7.57066 9.78689 7.1608Z" fill="white"/>
</svg>
