<svg width="20" height="20" viewBox="0 0 20 20" fill="none" xmlns="http://www.w3.org/2000/svg">
<path d="M10 20C4.4856 20 0 15.5144 0 10C0 7.3672 1.0672 4.7904 2.9288 2.9288C3.2416 2.616 3.7472 2.616 4.06 2.9288C4.3728 3.2416 4.3728 3.7472 4.06 4.06C2.4968 5.624 1.6 7.7888 1.6 10C1.6 14.632 5.368 18.4 10 18.4C14.632 18.4 18.4 14.632 18.4 10C18.4 5.6376 15.0584 2.0416 10.8 1.6376V5.6C10.8 6.0416 10.4416 6.4 10 6.4C9.5584 6.4 9.2 6.0416 9.2 5.6V0.8C9.2 0.3584 9.5584 0 10 0C15.5144 0 20 4.4856 20 10C20 15.5144 15.5144 20 10 20Z" fill="#2748A0" fill-opacity="0.8"/>
<path d="M5.43443 6.56563C5.12163 6.25283 5.12163 5.74643 5.43443 5.43443C5.74723 5.12163 6.25363 5.12163 6.56563 5.43443L11.1312 8.86883C11.756 9.49363 11.756 10.5064 11.1312 11.1312C10.5064 11.756 9.49363 11.756 8.86883 11.1312L5.43443 6.56563Z" fill="#2748A0" fill-opacity="0.8"/>
</svg>
