<svg width="216" height="237" viewBox="0 0 216 237" fill="none" xmlns="http://www.w3.org/2000/svg">
<circle cx="6" cy="167" r="6" fill="white" fill-opacity="0.15"/>
<circle cx="6" cy="135" r="6" fill="white" fill-opacity="0.15"/>
<circle cx="6" cy="199" r="6" fill="white" fill-opacity="0.15"/>
<circle cx="6" cy="231" r="6" fill="white" fill-opacity="0.15"/>
<circle cx="210" cy="167" r="6" fill="white" fill-opacity="0.15"/>
<circle cx="210" cy="135" r="6" fill="white" fill-opacity="0.15"/>
<circle cx="210" cy="199" r="6" fill="white" fill-opacity="0.15"/>
<circle cx="210" cy="231" r="6" fill="white" fill-opacity="0.15"/>
<ellipse cx="168.5" cy="167" rx="6.5" ry="6" fill="white" fill-opacity="0.15"/>
<ellipse cx="168.5" cy="135" rx="6.5" ry="6" fill="white" fill-opacity="0.15"/>
<ellipse cx="168.5" cy="199" rx="6.5" ry="6" fill="white" fill-opacity="0.15"/>
<ellipse cx="168.5" cy="231" rx="6.5" ry="6" fill="white" fill-opacity="0.15"/>
<ellipse cx="87.5" cy="167" rx="6.5" ry="6" fill="white" fill-opacity="0.15"/>
<ellipse cx="87.5" cy="135" rx="6.5" ry="6" fill="white" fill-opacity="0.15"/>
<ellipse cx="87.5" cy="199" rx="6.5" ry="6" fill="white" fill-opacity="0.15"/>
<ellipse cx="87.5" cy="231" rx="6.5" ry="6" fill="white" fill-opacity="0.15"/>
<circle cx="47" cy="167" r="6" fill="white" fill-opacity="0.15"/>
<circle cx="47" cy="135" r="6" fill="white" fill-opacity="0.15"/>
<circle cx="47" cy="199" r="6" fill="white" fill-opacity="0.15"/>
<circle cx="47" cy="231" r="6" fill="white" fill-opacity="0.15"/>
<circle cx="128" cy="167" r="6" fill="white" fill-opacity="0.15"/>
<circle cx="128" cy="135" r="6" fill="white" fill-opacity="0.15"/>
<circle cx="128" cy="199" r="6" fill="white" fill-opacity="0.15"/>
<circle cx="128" cy="231" r="6" fill="white" fill-opacity="0.15"/>
<circle cx="6" cy="38" r="6" fill="white" fill-opacity="0.15"/>
<circle cx="6" cy="6" r="6" fill="white" fill-opacity="0.15"/>
<circle cx="6" cy="70" r="6" fill="white" fill-opacity="0.15"/>
<circle cx="6" cy="102" r="6" fill="white" fill-opacity="0.15"/>
<circle cx="210" cy="38" r="6" fill="white" fill-opacity="0.15"/>
<circle cx="210" cy="6" r="6" fill="white" fill-opacity="0.15"/>
<circle cx="210" cy="70" r="6" fill="white" fill-opacity="0.15"/>
<circle cx="210" cy="102" r="6" fill="white" fill-opacity="0.15"/>
<ellipse cx="168.5" cy="38" rx="6.5" ry="6" fill="white" fill-opacity="0.15"/>
<ellipse cx="168.5" cy="6" rx="6.5" ry="6" fill="white" fill-opacity="0.15"/>
<ellipse cx="168.5" cy="70" rx="6.5" ry="6" fill="white" fill-opacity="0.15"/>
<ellipse cx="168.5" cy="102" rx="6.5" ry="6" fill="white" fill-opacity="0.15"/>
<ellipse cx="87.5" cy="38" rx="6.5" ry="6" fill="white" fill-opacity="0.15"/>
<ellipse cx="87.5" cy="6" rx="6.5" ry="6" fill="white" fill-opacity="0.15"/>
<ellipse cx="87.5" cy="70" rx="6.5" ry="6" fill="white" fill-opacity="0.15"/>
<ellipse cx="87.5" cy="102" rx="6.5" ry="6" fill="white" fill-opacity="0.15"/>
<circle cx="47" cy="38" r="6" fill="white" fill-opacity="0.15"/>
<circle cx="47" cy="6" r="6" fill="white" fill-opacity="0.15"/>
<circle cx="47" cy="70" r="6" fill="white" fill-opacity="0.15"/>
<circle cx="47" cy="102" r="6" fill="white" fill-opacity="0.15"/>
<circle cx="128" cy="38" r="6" fill="white" fill-opacity="0.15"/>
<circle cx="128" cy="6" r="6" fill="white" fill-opacity="0.15"/>
<circle cx="128" cy="70" r="6" fill="white" fill-opacity="0.15"/>
<circle cx="128" cy="102" r="6" fill="white" fill-opacity="0.15"/>
</svg>
